<svg width="29" height="16" viewBox="0 0 29 16" fill="none" xmlns="http://www.w3.org/2000/svg">
<path d="M20.0001 0.9999C19.9063 1.09286 19.8319 1.20346 19.7812 1.32532C19.7304 1.44718 19.7043 1.57789 19.7043 1.7099C19.7043 1.84191 19.7304 1.97262 19.7812 2.09448C19.8319 2.21634 19.9063 2.32694 20.0001 2.4199L24.6001 7.0199H1.06006C0.794842 7.0199 0.540488 7.12526 0.352952 7.31279C0.165415 7.50033 0.0600586 7.75468 0.0600586 8.0199C0.0600586 8.28512 0.165415 8.53947 0.352952 8.72701C0.540488 8.91454 0.794842 9.0199 1.06006 9.0199H24.5801L20.0001 13.5899C19.8138 13.7773 19.7093 14.0307 19.7093 14.2949C19.7093 14.5591 19.8138 14.8125 20.0001 14.9999C20.1874 15.1862 20.4409 15.2907 20.7051 15.2907C20.9692 15.2907 21.2227 15.1862 21.4101 14.9999L27.7701 8.6399C27.8557 8.55777 27.9238 8.45918 27.9703 8.35006C28.0168 8.24093 28.0408 8.12353 28.0408 8.0049C28.0408 7.88627 28.0168 7.76887 27.9703 7.65974C27.9238 7.55062 27.8557 7.45203 27.7701 7.3699L21.4201 0.9999C21.3271 0.906171 21.2165 0.831777 21.0946 0.781009C20.9728 0.73024 20.8421 0.704102 20.7101 0.704102C20.578 0.704102 20.4473 0.73024 20.3255 0.781009C20.2036 0.831777 20.093 0.906171 20.0001 0.9999Z" fill="white"/>
</svg>
